P2
11 20
255
  0   0 255 255 255 255 255 255 255   0   0
  0 255 255 255 255 255 255 255 255 255   0
255 255 255   0   0   0   0   0 255 255 255
255 255   0   0   0   0   0   0   0 255 255
255 255   0   0   0   0   0   0   0 255 255
255 255   0   0   0   0   0   0   0 255 255
255 255   0   0   0   0   0   0   0 255 255
255 255 255   0   0   0   0   0 255 255 255
  0 255 255 255   0   0   0 255 255 255   0
  0   0 255 255 255 255 255 255 255   0   0
  0   0 255 255 255 255 255 255 255   0   0
  0 255 255 255   0   0   0 255 255 255   0
255 255 255   0   0   0   0   0 255 255 255
255 255   0   0   0   0   0   0   0 255 255
255 255   0   0   0   0   0   0   0 255 255
255 255   0   0   0   0   0   0   0 255 255
255 255   0   0   0   0   0   0   0 255 255
255 255 255   0   0   0   0   0 255 255 255
  0 255 255 255 255 255 255 255 255 255   0
  0   0 255 255 255 255 255 255 255   0   0
